<svg xmlns="http://www.w3.org/2000/svg" viewBox="0 0 512 512" fill="none">
  <defs>
    <linearGradient id="g" x1="0%" y1="0%" x2="100%" y2="100%">
      <stop offset="0%" stop-color="#22d3ee"/>
      <stop offset="100%" stop-color="#3b82f6"/>
    </linearGradient>
    <linearGradient id="g2" x1="0%" y1="0%" x2="100%" y2="100%">
      <stop offset="0%" stop-color="#0ea5e9"/>
      <stop offset="100%" stop-color="#2563eb"/>
    </linearGradient>
  </defs>
  <!-- Background circle -->
  <rect width="512" height="512" rx="112" fill="#0b0e14"/>
  <!-- House roof -->
  <path d="M256 100 L420 230 L400 230 L400 400 C400 415 388 426 374 426 L138 426 C124 426 112 415 112 400 L112 230 L92 230 Z" fill="url(#g)" opacity="0.15"/>
  <!-- House body -->
  <path d="M152 250 L152 390 C152 398 158 404 166 404 L346 404 C354 404 360 398 360 390 L360 250" fill="url(#g)" opacity="0.25"/>
  <!-- House roof outline -->
  <path d="M256 120 L400 240" stroke="url(#g)" stroke-width="28" stroke-linecap="round"/>
  <path d="M256 120 L112 240" stroke="url(#g)" stroke-width="28" stroke-linecap="round"/>
  <!-- House walls -->
  <path d="M152 240 L152 390 C152 400 160 408 170 408 L342 408 C352 408 360 400 360 390 L360 240" stroke="url(#g)" stroke-width="22" stroke-linecap="round" stroke-linejoin="round" fill="none"/>
  <!-- Door -->
  <rect x="222" y="308" width="68" height="100" rx="12" fill="url(#g2)" opacity="0.6"/>
  <!-- Window left -->
  <rect x="168" y="278" width="42" height="42" rx="8" stroke="url(#g)" stroke-width="10" fill="none" opacity="0.7"/>
  <!-- Window right -->
  <rect x="302" y="278" width="42" height="42" rx="8" stroke="url(#g)" stroke-width="10" fill="none" opacity="0.7"/>
  <!-- Smart glow dot on roof -->
  <circle cx="256" cy="120" r="10" fill="#22d3ee"/>
  <circle cx="256" cy="120" r="16" fill="#22d3ee" opacity="0.3"/>
</svg>
